# xmcd
#
# Track frame offsets: 
#        150
#        12550
#        31177
#        56210
#        69244
#        89353
#        109081
#        123785
#        143061
#        161412
#        176708
#        197234
#        216347
#
# Disc length: 3080 seconds
#
# Revision: 0
# Processed by: cddbd v1.5.2PL0 Copyright (c) Steve Scherf et al.
# Submitted via: ExactAudioCopy v0.99pb5
#
DISCID=b60c060d
DTITLE=JAKUB SMOLÍK - Paleta zivota
DYEAR=2011
DGENRE=Country
TTITLE0=Paleta zivota 
TTITLE1=Otec a syn
TTITLE2=Hotel California
TTITLE3=Proc jsi tak krasna
TTITLE4=Dzinova laska
TTITLE5=Ja budu blues Ti hrat
TTITLE6=Tak me tu mate
TTITLE7=V pohadkach
TTITLE8=Zustan v lasce se mnou
TTITLE9=Nic to neznamena
TTITLE10=Poslouchej lasko
TTITLE11=Ze ja jsem laska Tva
TTITLE12=At snih se snasi k Vanocum
EXTD=
EXTT0=
EXTT1=
EXTT2=
EXTT3=
EXTT4=
EXTT5=
EXTT6=
EXTT7=
EXTT8=
EXTT9=
EXTT10=
EXTT11=
EXTT12=
PLAYORDER=
